<svg id="visual" viewBox="0 0 900 600" width="900" height="600" xmlns="http://www.w3.org/2000/svg" xmlns:xlink="http://www.w3.org/1999/xlink" version="1.1"><path d="M0 346L21.5 343.7C43 341.3 86 336.7 128.8 337.7C171.7 338.7 214.3 345.3 257.2 346.2C300 347 343 342 385.8 336.7C428.7 331.3 471.3 325.7 514.2 329.3C557 333 600 346 642.8 338.3C685.7 330.7 728.3 302.3 771.2 291.8C814 281.3 857 288.7 878.5 292.3L900 296L900 601L878.5 601C857 601 814 601 771.2 601C728.3 601 685.7 601 642.8 601C600 601 557 601 514.2 601C471.3 601 428.7 601 385.8 601C343 601 300 601 257.2 601C214.3 601 171.7 601 128.8 601C86 601 43 601 21.5 601L0 601Z" fill="#6366f1"></path><path d="M0 410L21.5 399.2C43 388.3 86 366.7 128.8 362.3C171.7 358 214.3 371 257.2 369.8C300 368.7 343 353.3 385.8 352.5C428.7 351.7 471.3 365.3 514.2 377.2C557 389 600 399 642.8 401.3C685.7 403.7 728.3 398.3 771.2 400.3C814 402.3 857 411.7 878.5 416.3L900 421L900 601L878.5 601C857 601 814 601 771.2 601C728.3 601 685.7 601 642.8 601C600 601 557 601 514.2 601C471.3 601 428.7 601 385.8 601C343 601 300 601 257.2 601C214.3 601 171.7 601 128.8 601C86 601 43 601 21.5 601L0 601Z" fill="#2c80f7"></path><path d="M0 479L21.5 478.8C43 478.7 86 478.3 128.8 467.2C171.7 456 214.3 434 257.2 425.7C300 417.3 343 422.7 385.8 428.3C428.7 434 471.3 440 514.2 450.5C557 461 600 476 642.8 482.8C685.7 489.7 728.3 488.3 771.2 484.7C814 481 857 475 878.5 472L900 469L900 601L878.5 601C857 601 814 601 771.2 601C728.3 601 685.7 601 642.8 601C600 601 557 601 514.2 601C471.3 601 428.7 601 385.8 601C343 601 300 601 257.2 601C214.3 601 171.7 601 128.8 601C86 601 43 601 21.5 601L0 601Z" fill="#0095f3"></path><path d="M0 541L21.5 533.5C43 526 86 511 128.8 516C171.7 521 214.3 546 257.2 557.7C300 569.3 343 567.7 385.8 560.3C428.7 553 471.3 540 514.2 532.5C557 525 600 523 642.8 519.7C685.7 516.3 728.3 511.7 771.2 505.8C814 500 857 493 878.5 489.5L900 486L900 601L878.5 601C857 601 814 601 771.2 601C728.3 601 685.7 601 642.8 601C600 601 557 601 514.2 601C471.3 601 428.7 601 385.8 601C343 601 300 601 257.2 601C214.3 601 171.7 601 128.8 601C86 601 43 601 21.5 601L0 601Z" fill="#0ea5e9"></path></svg>